<mxfile host="app.diagrams.net" modified="2023-02-18T10:39:19.630Z" agent="5.0 (X11; Linux x86_64) AppleWebKit/537.36 (KHTML, like Gecko) Chrome/105.0.0.0 Safari/537.36" etag="klrYj8KshJAwhibNU_I9" version="20.8.20" type="github">
  <diagram name="PÃ¡gina-1" id="3JbpTiL6qh8KciYnx0uN">
    <mxGraphModel dx="1434" dy="726" grid="1" gridSize="10" guides="1" tooltips="1" connect="1" arrows="1" fold="1" page="1" pageScale="1" pageWidth="827" pageHeight="1169" math="0" shadow="0">
      <root>
        <mxCell id="0" />
        <mxCell id="1" parent="0" />
        <mxCell id="8tYnRX_RJGJdHVzkhjqW-1" value="" style="rounded=0;whiteSpace=wrap;html=1;" vertex="1" parent="1">
          <mxGeometry x="350" y="410" width="120" height="60" as="geometry" />
        </mxCell>
      </root>
    </mxGraphModel>
  </diagram>
</mxfile>
